# xmcd
#
# Track frame offsets:
#  150
#  11512
#  17872
#  35586
#  44863
#  58761
#  70225
#  82032
#  95841
#  108323
#  121346
#  132936
#
# Disc length: 1980 seconds
#
# Revision: 0
# Processed by: cddbd v1.5.2PL0 Copyright (c) Steve Scherf et al.
# Submitted via: AltoMP3_Maker 3.0
#
DISCID=ac07ba0c
DTITLE=Charlie Brittain - Favorites of Yours And Mine
DYEAR=1900
DGENRE=
TTITLE0=Don't Worry About Me
TTITLE1=Flat Top Chimes
TTITLE2=Golden Guitar
TTITLE3=Grandfather's Clock
TTITLE4=He Stopped Loving Her Today
TTITLE5=Honky Tonk Toys
TTITLE6=It Took Your Blood
TTITLE7=Last Request
TTITLE8=My Nova Scotia Home
TTITLE9=Old Timers Waltz
TTITLE10=Storms of Life
TTITLE11=Walkin Through my Memory
EXTD=
EXTT0=
EXTT1=
EXTT2=
EXTT3=
EXTT4=
EXTT5=
EXTT6=
EXTT7=
EXTT8=
EXTT9=
EXTT10=
EXTT11=
PLAYORDER=
